# xmcd
#
# Track frame offsets:
#	150
#	16042
#	27210
#	39115
#	52562
#	72675
#	85002
#	99840
#	110822
#	129137
#
# Disc length: 1872
#
# Revision: 1
# Processed by: cddbd v1.5.1PL0 Copyright (c) Steve Scherf et al.
# Submitted via: Nero 5.5.9.0
# Normalized: r0:DSETVAR1
#
DISCID=68074e0a
DTITLE=Various Artist - Shades Of Blues
DYEAR=1900
DGENRE=
TTITLE0=Lightnin' Hopkins - Coffee For Mama
TTITLE1=Joe Williams - Sinking Blues
TTITLE2=Leadbelly - Blue Tail Fly
TTITLE3=John Lee Hooker - Trouble Blues
TTITLE4=Lightnin' Hopkins - Shine On Moon
TTITLE5=Joe Williams - Sugar Mama
TTITLE6=Leadbelly - In New Orleans
TTITLE7=John Lee Hooker - Big Fine Woman
TTITLE8=Lightnin' Hopkins - Shake That Thing
TTITLE9=Joe Williams - Bye Bye Baby Blues
EXTD=
EXTT0=
EXTT1=
EXTT2=
EXTT3=
EXTT4=
EXTT5=
EXTT6=
EXTT7=
EXTT8=
EXTT9=
PLAYORDER=
